<?xml version="1.0" encoding="utf-8"?>
<!-- Generator: Adobe Illustrator 16.0.0, SVG Export Plug-In . SVG Version: 6.00 Build 0)  -->
<!DOCTYPE svg PUBLIC "-//W3C//DTD SVG 1.1//EN" "http://www.w3.org/Graphics/SVG/1.1/DTD/svg11.dtd">
<svg version="1.1" id="Layer_1" xmlns="http://www.w3.org/2000/svg" xmlns:xlink="http://www.w3.org/1999/xlink" x="0px" y="0px"
	 width="353px" height="75px" viewBox="0 0 353 75" enable-background="new 0 0 353 75" xml:space="preserve">
<g>
	<path fill="#FACA37" d="M189.892,57.861h-18.75l-3.809,15.186H153.32l20.02-71.094h14.453l19.971,71.094H193.75L189.892,57.861z
		 M173.974,46.777h13.086l-6.396-25.146h-0.293L173.974,46.777z"/>
	<path fill="#FACA37" d="M241.873,54.492c0-2.766-0.716-4.955-2.148-6.566s-3.955-3.199-7.568-4.762
		c-7.39-2.57-12.932-5.492-16.626-8.764c-3.695-3.271-5.542-7.854-5.542-13.746c0-5.826,2.148-10.57,6.445-14.232
		s9.782-5.494,16.455-5.494c6.771,0,12.272,2.043,16.504,6.129c4.231,4.085,6.282,9.236,6.152,15.453l-0.098,0.293H241.97
		c0-3.254-0.813-5.891-2.441-7.91c-1.628-2.018-3.923-3.027-6.885-3.027c-2.767,0-4.924,0.839-6.47,2.516
		c-1.547,1.676-2.319,3.783-2.319,6.322c0,2.344,0.862,4.273,2.588,5.787s4.72,3.197,8.984,5.053
		c6.738,2.279,11.808,5.168,15.21,8.668c3.401,3.499,5.103,8.227,5.103,14.184c0,6.152-2.051,10.971-6.152,14.453
		c-4.102,3.484-9.554,5.225-16.357,5.225c-6.771,0-12.639-1.977-17.603-5.932c-4.965-3.955-7.365-9.627-7.202-17.018l0.098-0.293
		h13.525c0,4.395,0.928,7.553,2.783,9.473c1.855,1.922,4.655,2.881,8.398,2.881c2.93,0,5.103-0.781,6.519-2.344
		S241.873,57.162,241.873,54.492z"/>
	<path fill="#FACA37" d="M303.277,13.037h-16.016v60.01h-13.867v-60.01h-15.918V1.953h45.801V13.037z"/>
	<path fill="#FACA37" d="M337.777,54.492c0-2.766-0.717-4.955-2.148-6.566c-1.433-1.611-3.955-3.199-7.568-4.762
		c-7.39-2.57-12.932-5.492-16.626-8.764c-3.695-3.271-5.542-7.854-5.542-13.746c0-5.826,2.148-10.57,6.445-14.232
		s9.781-5.494,16.455-5.494c6.771,0,12.271,2.043,16.504,6.129c4.231,4.085,6.282,9.236,6.152,15.453l-0.098,0.293h-13.477
		c0-3.254-0.814-5.891-2.441-7.91c-1.628-2.018-3.923-3.027-6.885-3.027c-2.768,0-4.924,0.839-6.47,2.516
		c-1.547,1.676-2.319,3.783-2.319,6.322c0,2.344,0.862,4.273,2.588,5.787c1.725,1.514,4.72,3.197,8.984,5.053
		c6.738,2.279,11.808,5.168,15.21,8.668c3.401,3.499,5.103,8.227,5.103,14.184c0,6.152-2.051,10.971-6.152,14.453
		c-4.102,3.484-9.555,5.225-16.357,5.225c-6.771,0-12.639-1.977-17.603-5.932c-4.965-3.955-7.365-9.627-7.202-17.018l0.098-0.293
		h13.525c0,4.395,0.928,7.553,2.783,9.473c1.855,1.922,4.654,2.881,8.398,2.881c2.93,0,5.103-0.781,6.519-2.344
		S337.777,57.162,337.777,54.492z"/>
	<path fill="#FACA37" d="M138.986,50.146c0.163,4.688-0.415,8-1.733,9.938c-1.318,1.937-3.654,2.904-7.007,2.904
		c-3.418,0-6.014-1.221-7.788-3.664c-1.774-2.444-2.661-6.176-2.661-11.193V26.773c0-4.953,0.83-8.652,2.49-11.096
		s4.053-3.666,7.178-3.666c3.646,0,6.201,1.029,7.666,3.088s2.1,5.424,1.904,10.096h13.379l0.146-0.293
		c-0.13-7.91-2.124-13.883-5.981-17.92c-3.857-4.035-9.562-6.055-17.114-6.055c-6.072,0-18.795,0-22.438,0c-0.634,0-1,0-1,0H21.356
		c-11.046,0-20,8.955-20,20v33.145c0,11.047,8.954,20,20,20h84.671c0,0,0.366,0,1,0c3.718,0,16.933,0,23.219,0
		c7.356,0,12.923-1.984,16.699-5.957c3.776-3.971,5.631-9.863,5.566-17.676l-0.146-0.293H138.986z M43.914,17.705c0,1.1-0.9,2-2,2
		H25.277c-1.1,0-2,0.9-2,2v10.102c0,1.1,0.9,2,2,2h13.546c1.1,0,2,0.9,2,2v4.062c0,1.1-0.9,2-2,2H25.277c-1.1,0-2,0.9-2,2v17.49
		c0,1.1-0.9,2-2,2h-6.123c-1.1,0-2-0.9-2-2V13.643c0-1.1,0.9-2,2-2h26.76c1.1,0,2,0.9,2,2V17.705z M77.079,61.359c0,1.1-0.9,2-2,2
		H50.06c-1.1,0-2-0.9-2-2V13.643c0-1.1,0.9-2,2-2h6.123c1.1,0,2,0.9,2,2v39.652c0,1.1,0.9,2,2,2h14.896c1.1,0,2,0.9,2,2V61.359z
		 M109.96,61.359c0,1.1-0.9,2-2,2H82.94c-1.1,0-2-0.9-2-2V13.643c0-1.1,0.9-2,2-2h6.123c1.1,0,2,0.9,2,2v39.652c0,1.1,0.9,2,2,2
		h14.896c1.1,0,2,0.9,2,2V61.359z"/>
</g>
<g>
</g>
<g>
</g>
<g>
</g>
<g>
</g>
<g>
</g>
<g>
</g>
</svg>
